<svg id="Capa_1" enable-background="new 0 0 512 512" height="512" viewBox="0 0 512 512" width="512" xmlns="http://www.w3.org/2000/svg"><g><g><g><g><g><path d="m137.781 268.958c26.081 0 48.594 15.26 59.11 37.337 10.516-22.076 33.028-37.337 59.11-37.337.109 0 .217.008.326.008 3.36-7.877 5.223-16.546 5.223-25.651 0-36.143-29.3-65.443-65.443-65.443s-65.443 29.3-65.443 65.443c0 9.12 1.87 17.802 5.241 25.69.624-.017 1.246-.047 1.876-.047z" fill="#fdb97e"/><path d="m137.781 268.958c26.081 0 48.594 15.26 59.11 37.337 1.378-2.893 2.961-5.67 4.732-8.31-17.769-11.697-29.507-31.804-29.507-54.669 0-28.896 18.736-53.401 44.717-62.073-6.516-2.175-13.479-3.37-20.726-3.37-36.143 0-65.443 29.3-65.443 65.443 0 9.12 1.87 17.802 5.241 25.69.624-.018 1.246-.048 1.876-.048z" fill="#fea95c"/><g><path d="m196.107 177.872c-29.681 0-54.732 19.765-62.746 46.847h47.138c6.116 0 11.074 4.958 11.074 11.074 0 7.228 5.859 13.087 13.087 13.087s13.087-5.859 13.087-13.087c0-6.116 4.958-11.074 11.074-11.074h30.033c-8.016-27.082-33.067-46.847-62.747-46.847z" fill="#a44f3e"/></g><g><path d="m133.36 224.719h41.444c6.06-20.465 21.858-36.744 42.028-43.477-6.516-2.175-13.479-3.37-20.726-3.37-29.68 0-54.731 19.765-62.746 46.847z" fill="#883f2e"/></g></g><path d="m256 268.958c26.081 0 48.594 15.26 59.11 37.337 10.516-22.076 33.028-37.337 59.11-37.337.629 0 1.251.03 1.876.047 3.37-7.888 5.241-16.57 5.241-25.69 0-36.143-29.3-65.443-65.443-65.443s-65.443 29.3-65.443 65.443c0 9.105 1.863 17.774 5.223 25.651.109 0 .217-.008.326-.008z" fill="#fdb97e"/><path d="m256 268.958c26.081 0 48.594 15.26 59.11 37.337 1.522-3.196 3.302-6.244 5.302-9.128-17.087-11.803-28.291-31.511-28.291-53.851 0-28.856 18.684-53.332 44.608-62.036-6.547-2.198-13.548-3.407-20.835-3.407-36.143 0-65.443 29.3-65.443 65.443 0 9.105 1.863 17.774 5.223 25.651.109-.001.217-.009.326-.009z" fill="#fea95c"/><g><path d="m369.544 205.86c-11.831-16.915-31.442-27.988-53.651-27.988-35.499 0-64.376 28.27-65.394 63.522 21.282 7.858 37.774 1.049 55.233-7.521 6.973-3.423 15.115 1.718 15.115 9.486v1.038c0 7.273 5.896 13.169 13.169 13.169 7.273 0 13.169-5.896 13.169-13.169v-16.267c0-10.14 7-18.926 16.874-21.233 1.828-.427 3.657-.77 5.485-1.037z" fill="#a44f3e"/></g><g><path d="m250.499 241.395c15.751 5.816 28.878 3.594 41.716-1.426 1.381-27.388 19.599-50.323 44.514-58.689-6.547-2.198-13.548-3.407-20.835-3.407-35.5-.001-64.376 28.269-65.395 63.522z" fill="#883f2e"/></g></g></g><g><path d="m85.301 367.167h109.12c5.588-9.638 8.802-20.823 8.802-32.766 0-36.143-29.3-65.443-65.443-65.443s-65.443 29.3-65.443 65.443c0 11.786 3.132 22.835 8.585 32.387 1.444.248 2.909.379 4.379.379z" fill="#fdb97e"/><path d="m85.301 367.167h37.611c-5.59-9.635-8.798-20.823-8.798-32.766 0-28.836 18.659-53.298 44.555-62.018-6.562-2.21-13.581-3.425-20.888-3.425-36.143 0-65.443 29.3-65.443 65.443 0 11.786 3.132 22.835 8.585 32.387 1.443.248 2.908.379 4.378.379z" fill="#fea95c"/><g><path d="m196.742 306.139c-10.547-21.993-33.019-37.181-59.04-37.181-35.111 0-63.757 27.652-65.365 62.365 41.469 22.478 82.937-45.796 124.405-25.184z" fill="#a44f3e"/></g><g><path d="m72.414 331.362c13.953 7.525 27.905 4.786 41.858-1.368 1.791-26.899 19.831-49.339 44.396-57.61-6.562-2.21-13.581-3.425-20.888-3.425-35.123-.001-63.777 27.671-65.366 62.403z" fill="#883f2e"/></g><path d="m312.64 367.167c5.588-9.638 8.802-20.823 8.802-32.766 0-36.143-29.3-65.443-65.443-65.443s-65.443 29.3-65.443 65.443c0 11.943 3.215 23.128 8.802 32.766z" fill="#fdb97e"/><path d="m240.916 367.167c-5.59-9.635-8.798-20.823-8.798-32.766 0-28.876 18.71-53.366 44.662-62.054-6.531-2.187-13.514-3.389-20.781-3.389-36.143 0-65.443 29.3-65.443 65.443 0 11.943 3.215 23.128 8.802 32.766z" fill="#fea95c"/><g><path d="m315.039 306.139c-10.547-21.993-33.019-37.181-59.04-37.181-35.111 0-63.757 27.652-65.365 62.365 41.469 22.478 82.937-45.796 124.405-25.184z" fill="#a44f3e"/></g><g><path d="m190.635 331.323c13.878 7.523 27.756 4.876 41.634-1.197 1.743-26.996 19.852-49.523 44.512-57.779-6.531-2.186-13.514-3.389-20.781-3.389-35.111 0-63.757 27.651-65.365 62.365z" fill="#883f2e"/></g><g><path d="m419.674 367.167c4.62 0 9.11-1.219 13.088-3.521 4.407-8.803 6.9-18.73 6.9-29.245 0-36.143-29.3-65.443-65.443-65.443s-65.443 29.3-65.443 65.443c0 11.943 3.215 23.128 8.802 32.766z" fill="#fdb97e"/><path d="m358.92 367.167c-5.59-9.635-8.797-20.823-8.797-32.766 0-28.916 18.762-53.434 44.77-62.09-6.5-2.164-13.446-3.353-20.673-3.353-36.143 0-65.443 29.3-65.443 65.443 0 11.943 3.215 23.128 8.802 32.766z" fill="#fea95c"/><g><path d="m433.259 306.139c-10.547-21.993-33.019-37.181-59.039-37.181-35.111 0-63.757 27.652-65.365 62.365 41.468 22.478 82.936-45.796 124.404-25.184z" fill="#a44f3e"/></g><g><path d="m394.893 272.31c-6.5-2.163-13.446-3.352-20.673-3.352-35.111 0-63.757 27.652-65.365 62.365 13.805 7.483 27.609 4.904 41.414-1.1 1.708-27.079 19.879-49.677 44.624-57.913z" fill="#883f2e"/></g></g></g><g><path d="m419.674 366.167h-334.373c-5.525 0-10.896-1.818-15.286-5.174l-39.565-30.249c-2.004-1.532-4.833-1.344-6.616.439l-14.87 14.87c-1.788 1.788-1.972 4.624-.43 6.628l59.126 76.864c.953 1.239 2.427 1.964 3.99 1.964h368.701c1.563 0 3.037-.726 3.99-1.964l59.126-76.864c1.541-2.004 1.357-4.84-.43-6.628l-15.084-15.084c-1.689-1.689-4.333-1.958-6.328-.644l-48.104 31.691c-4.111 2.708-8.925 4.151-13.847 4.151z" fill="#fed402"/></g><g><g><path d="m118.162 429.545-59.126-76.864c-.039-.051-.064-.108-.101-.16l-28.485-21.777c-2.004-1.532-4.833-1.344-6.616.44l-14.87 14.87c-1.788 1.788-1.972 4.624-.43 6.628l59.126 76.864c.953 1.239 2.427 1.964 3.99 1.964h50.502c-1.563 0-3.037-.726-3.99-1.965z" fill="#fac600"/></g></g></g><g><path d="m267.714 141.008-14.856 14.856c-1.179 1.179-3.092 1.179-4.271 0l-14.856-14.856c-1.179-1.179-1.179-3.092 0-4.271l14.856-14.856c1.179-1.179 3.092-1.179 4.271 0l14.856 14.856c1.179 1.18 1.179 3.092 0 4.271z" fill="#02905d"/></g><g><path d="m320.306 100.497-14.856 14.856c-1.179 1.179-3.092 1.179-4.271 0l-14.856-14.856c-1.179-1.179-1.179-3.092 0-4.271l14.856-14.856c1.179-1.179 3.092-1.179 4.271 0l14.856 14.856c1.179 1.179 1.179 3.091 0 4.271z" fill="#02905d"/></g><g><path d="m478.111 277.429-14.856 14.856c-1.179 1.179-3.092 1.179-4.271 0l-14.856-14.856c-1.179-1.179-1.179-3.092 0-4.271l14.856-14.856c1.179-1.179 3.092-1.179 4.271 0l14.856 14.856c1.179 1.179 1.179 3.091 0 4.271z" fill="#02905d"/></g><g><path d="m209.57 102.51-14.856 14.856c-1.179 1.179-3.092 1.179-4.271 0l-14.856-14.856c-1.179-1.179-1.179-3.092 0-4.271l14.856-14.856c1.179-1.179 3.092-1.179 4.271 0l14.856 14.856c1.18 1.179 1.18 3.092 0 4.271z" fill="#02905d"/></g><g><path d="m91.026 234.63-14.856 14.856c-1.179 1.179-3.092 1.179-4.271 0l-14.856-14.856c-1.179-1.179-1.179-3.092 0-4.271l14.856-14.856c1.179-1.179 3.092-1.179 4.271 0l14.856 14.856c1.179 1.179 1.179 3.091 0 4.271z" fill="#02905d"/></g><g><path d="m508.339 340.75-15.084-15.084c-4.187-4.186-10.813-4.86-15.758-1.604l-31.049 20.455c.466-3.307.714-6.682.714-10.116 0-25.532-13.196-48.027-33.115-61.064l75.805-75.805c2.929-2.929 2.929-7.678 0-10.607s-7.678-2.929-10.607 0l-79.25 79.25c-4.396-1.666-8.992-2.916-13.743-3.708.821-3.002 1.464-6.077 1.897-9.218l81.131-81.131c2.929-2.929 2.929-7.678 0-10.607s-7.678-2.929-10.607 0l-70.683 70.684c-5.37-34.963-35.655-61.824-72.096-61.824-24.782 0-46.703 12.432-59.892 31.377-5.402-7.761-12.266-14.43-20.198-19.597 1.667-2.87 1.28-6.606-1.178-9.063-2.929-2.929-7.678-2.929-10.607 0l-2.036 2.036c-8.047-3.065-16.767-4.753-25.877-4.753-40.221 0-72.943 32.722-72.943 72.943 0 6.63.913 13.046 2.584 19.152-34.513 5.755-60.91 35.811-60.91 71.933 0 4.89.501 9.663 1.428 14.284l-31.26-23.9c-4.97-3.799-12.053-3.327-16.475 1.095l-14.87 14.87c-4.436 4.436-4.897 11.531-1.072 16.504l59.126 76.865c2.356 3.063 6.07 4.891 9.934 4.891h118.348c4.142 0 7.5-3.358 7.5-7.5s-3.358-7.5-7.5-7.5h-117.132l-57.064-74.184 11.812-11.811 37.849 28.938c5.665 4.331 12.711 6.716 19.841 6.716h286.704c4.142 0 7.5-3.358 7.5-7.5s-3.358-7.5-7.5-7.5h-50.366c-2.367-5.108-4.027-10.607-4.819-16.384 3.311.762 6.607 1.128 9.882 1.128 17.077 0 33.592-9.307 48.681-17.81 18.44-10.391 35.903-20.219 52.197-13.774 2.947 6.941 4.58 14.571 4.58 22.574 0 7.918-1.605 15.464-4.497 22.343-2.47 1.256-5.195 1.923-7.991 1.923h-12.668c-4.142 0-7.5 3.358-7.5 7.5s3.358 7.5 7.5 7.5h12.668c6.406 0 12.621-1.863 17.971-5.388l46.425-30.585 12.13 12.13-57.064 74.184h-214.136c-4.142 0-7.5 3.358-7.5 7.5s3.358 7.5 7.5 7.5h215.352c3.864 0 7.578-1.828 9.935-4.891l59.126-76.865c3.825-4.971 3.364-12.066-1.073-16.502zm-192.445-155.378c15.669 0 29.896 6.262 40.336 16.403-9.981 4.804-16.545 14.884-16.545 26.354v16.267c0 3.126-2.543 5.669-5.669 5.669s-5.668-2.543-5.668-5.669v-1.038c0-6.277-3.183-12.007-8.515-15.329-5.303-3.303-11.81-3.635-17.405-.89-15.092 7.408-28.172 12.806-43.999 8.864 3.607-28.507 27.993-50.631 57.465-50.631zm-119.788 0c5.298 0 10.428.724 15.307 2.063-.495 2.391.181 4.976 2.036 6.831 1.464 1.464 3.384 2.197 5.303 2.197 1.92 0 3.839-.732 5.303-2.197l1.077-1.077c9.679 5.632 17.586 13.988 22.67 24.009-.003.007-.006.014-.008.021h-18.974c-10.242 0-18.574 8.332-18.574 18.574 0 3.081-2.506 5.587-5.587 5.587s-5.587-2.506-5.587-5.587c0-10.242-8.332-18.574-18.573-18.574h-36.1c9.563-18.872 29.143-31.847 51.707-31.847zm-110.805 173.295c-.032 0-.064-.004-.096-.004-2.36-5.092-4.019-10.573-4.811-16.331 3.327.771 6.632 1.14 9.909 1.14 12.834 0 25.266-5.304 37.09-11.545 3.663-1.934 5.066-6.471 3.132-10.134-1.934-3.664-6.473-5.067-10.134-3.132-15.079 7.959-27.868 12.354-40.027 8.048 3.776-28.324 28.076-50.251 57.416-50.251 16.612 0 31.603 7.036 42.176 18.275-7.54.074-16.815 1.942-28.275 7.168-3.769 1.719-5.431 6.167-3.713 9.936 1.259 2.76 3.981 4.391 6.829 4.391 1.041 0 2.099-.218 3.107-.678 11.846-5.402 20.964-7.017 29.176-5.012-2.269 6.538-3.636 13.494-3.944 20.72 0 .028-.002.055-.002.083-.042 1.016-.078 2.033-.078 3.059 0 8.506 1.478 16.67 4.169 24.266h-101.924zm55.837-97.124c-1.912-5.736-2.974-11.856-2.974-18.227 0-3.795.378-7.502 1.078-11.096h41.257c1.97 0 3.573 1.603 3.573 3.573 0 11.352 9.235 20.587 20.587 20.587s20.587-9.235 20.587-20.587c0-1.97 1.603-3.573 3.573-3.573h14.973c-.555 3.619-.842 7.324-.842 11.096 0 6.542.89 12.874 2.518 18.908-19.934 2.898-37.276 13.887-48.584 29.52-12.646-17.479-32.827-29.156-55.746-30.201zm114.862 14.915c16.611 0 31.601 7.035 42.173 18.272-16.98.112-33.393 9.361-48.372 17.802-18.039 10.165-35.161 19.805-51.213 14.136 3.794-28.304 28.085-50.21 57.412-50.21zm-52.573 82.209c-2.366-5.104-4.027-10.598-4.817-16.371 3.308.755 6.602 1.115 9.876 1.115 17.077 0 33.592-9.307 48.681-17.81 16.915-9.532 33.008-18.58 48.131-15.037-2.593 7.476-4.021 15.491-4.021 23.838 0 8.506 1.474 16.67 4.164 24.266h-102.014zm57.523-97.038c-1.106-3.3-1.934-6.727-2.428-10.262 18.932 3.509 34.749-3.023 50.515-10.761 1.271-.625 2.339-.17 2.862.155.541.337 1.447 1.122 1.447 2.598v1.038c0 11.397 9.272 20.669 20.669 20.669s20.669-9.272 20.669-20.669v-16.267c0-6.677 4.556-12.405 11.078-13.929.057-.013.117-.024.174-.037 5.012 8.57 7.899 18.527 7.899 29.151 0 6.371-1.061 12.491-2.974 18.227-22.922 1.045-43.11 12.722-55.758 30.202-12.351-17.073-31.892-28.613-54.153-30.115zm107.071 50.904c-18.039 10.165-35.162 19.805-51.213 14.137 3.794-28.305 28.085-50.211 57.412-50.211 16.619 0 31.615 7.044 42.191 18.29-16.987.102-33.407 9.34-48.39 17.784z"/><path d="m243.284 161.169c2.051 2.05 4.744 3.075 7.438 3.075s5.388-1.026 7.439-3.076l14.856-14.856s.001 0 .001-.001c4.101-4.102 4.1-10.776-.001-14.877l-14.856-14.856c-4.101-4.101-10.774-4.101-14.878 0l-14.855 14.855c-1.988 1.987-3.083 4.629-3.083 7.44 0 2.81 1.094 5.452 3.082 7.439zm7.438-30.816 8.52 8.52-8.52 8.52-8.52-8.52z"/><path d="m461.119 249.917c-2.81 0-5.452 1.094-7.439 3.081l-14.856 14.856c-4.101 4.101-4.102 10.775 0 14.878l14.855 14.855c1.987 1.988 4.629 3.083 7.44 3.083s5.453-1.095 7.439-3.082l14.856-14.856c1.987-1.987 3.082-4.629 3.082-7.439 0-2.811-1.095-5.453-3.082-7.439l-14.856-14.856c-1.987-1.987-4.629-3.081-7.439-3.081zm0 33.896-8.52-8.52 8.52-8.52 8.52 8.52z"/><path d="m295.874 120.655c1.987 1.988 4.629 3.083 7.44 3.083 2.81 0 5.452-1.094 7.439-3.082l14.856-14.856c4.102-4.102 4.102-10.776 0-14.878l-14.857-14.857c-4.103-4.101-10.776-4.1-14.877.001l-14.856 14.856c-4.102 4.102-4.102 10.776 0 14.878zm7.44-30.814 8.52 8.52-8.52 8.52-8.52-8.52z"/><path d="m185.139 122.668c1.987 1.988 4.629 3.083 7.44 3.083s5.453-1.095 7.439-3.082l14.856-14.856s.001 0 .001-.001c4.101-4.102 4.1-10.776-.001-14.877l-14.856-14.856c-1.987-1.987-4.629-3.081-7.439-3.081s-5.452 1.094-7.439 3.081l-14.855 14.855c-1.988 1.987-3.083 4.629-3.083 7.44 0 2.81 1.094 5.452 3.082 7.439zm7.44-30.813 8.52 8.52-8.52 8.52-8.52-8.52z"/><path d="m66.596 254.789c2.051 2.051 4.745 3.076 7.439 3.076s5.388-1.025 7.439-3.076l14.856-14.856c4.101-4.101 4.102-10.775 0-14.878l-14.856-14.856c-4.102-4.102-10.776-4.102-14.878 0l-14.856 14.856c-1.987 1.987-3.082 4.629-3.082 7.439 0 2.811 1.095 5.453 3.082 7.439zm7.439-30.815 8.52 8.52-8.52 8.52-8.52-8.52z"/><path d="m196.335 211.883c1.465 1.464 3.384 2.197 5.304 2.197 1.919 0 3.839-.732 5.303-2.196 2.929-2.929 2.929-7.678 0-10.607l-5.536-5.537c-2.93-2.929-7.679-2.928-10.607 0-2.929 2.929-2.929 7.678 0 10.607z"/><path d="m318.648 212.89c1.464 1.464 3.384 2.197 5.303 2.197s3.839-.732 5.303-2.197c2.929-2.929 2.929-7.678 0-10.607l-5.537-5.537c-2.929-2.929-7.678-2.929-10.607 0s-2.929 7.678 0 10.607z"/><path d="m382.357 283.069c-2.929-2.929-7.678-2.929-10.607 0s-2.929 7.678 0 10.607l4.027 4.027c1.464 1.464 3.384 2.197 5.303 2.197 1.92 0 3.839-.732 5.303-2.197 2.929-2.929 2.929-7.678 0-10.607z"/><path d="m283.944 226.433c1.919 0 3.839-.732 5.303-2.197l5.536-5.536c2.929-2.929 2.929-7.678 0-10.607s-7.678-2.929-10.607 0l-5.536 5.536c-2.929 2.929-2.929 7.678 0 10.607 1.465 1.465 3.385 2.197 5.304 2.197z"/><path d="m231.336 311.225c1.919 0 3.839-.732 5.303-2.196l5.537-5.536c2.929-2.929 2.929-7.678 0-10.607-2.929-2.928-7.678-2.929-10.607 0l-5.537 5.536c-2.929 2.929-2.929 7.678 0 10.607 1.465 1.463 3.385 2.196 5.304 2.196z"/><path d="m257.239 297.451c1.464 1.465 3.384 2.197 5.304 2.197 1.919 0 3.839-.732 5.303-2.196 2.929-2.929 2.93-7.678.001-10.607l-3.523-3.524c-2.928-2.929-7.678-2.93-10.607-.001s-2.93 7.678-.001 10.607z"/><path d="m343.312 296.408-5.537 5.537c-2.929 2.929-2.929 7.678 0 10.607 1.464 1.464 3.384 2.197 5.303 2.197 1.92 0 3.839-.732 5.303-2.197l5.537-5.537c2.929-2.929 2.929-7.678 0-10.607-2.928-2.929-7.678-2.929-10.606 0z"/><path d="m107.244 292.885-5.536 5.536c-2.929 2.929-2.929 7.678 0 10.607 1.464 1.464 3.384 2.197 5.303 2.197s3.839-.732 5.303-2.197l5.536-5.536c2.929-2.929 2.929-7.678 0-10.607-2.928-2.929-7.677-2.929-10.606 0z"/><path d="m145.787 286.09-4.027-4.027c-2.929-2.929-7.678-2.929-10.607 0s-2.929 7.678 0 10.607l4.027 4.027c1.464 1.464 3.384 2.197 5.303 2.197s3.839-.732 5.303-2.197c2.93-2.93 2.93-7.679.001-10.607z"/></g></g></svg>