<?xml version="1.0"?>
<svg xmlns="http://www.w3.org/2000/svg" xmlns:xlink="http://www.w3.org/1999/xlink" xmlns:svgjs="http://svgjs.com/svgjs" version="1.1" width="512" height="512" x="0" y="0" viewBox="0 0 512.002 512.002" style="enable-background:new 0 0 512 512" xml:space="preserve" class=""><g>
<g xmlns="http://www.w3.org/2000/svg">
	<g>
		<path d="M67.306,296.527c-4.635-3.002-10.827-1.678-13.83,2.957c-6.857,10.587-11.898,22.154-14.984,34.382    c-1.349,5.355,1.896,10.791,7.251,12.143c0.821,0.207,1.644,0.306,2.454,0.306c4.472,0,8.545-3.022,9.689-7.556    c2.549-10.101,6.713-19.657,12.377-28.402C73.265,305.721,71.942,299.529,67.306,296.527z" fill="#4f45e4" data-original="#000000" style="" class=""/>
	</g>
</g>
<g xmlns="http://www.w3.org/2000/svg">
	<g>
		<path d="M88.866,276.226c-3.557-4.225-9.867-4.764-14.09-1.207c-0.11,0.092-0.217,0.185-0.324,0.281    c-4.122,3.676-4.483,9.997-0.807,14.119c1.976,2.214,4.715,3.343,7.466,3.343c2.354,0,4.716-0.826,6.616-2.504    C91.888,286.69,92.405,280.427,88.866,276.226z" fill="#4f45e4" data-original="#000000" style="" class=""/>
	</g>
</g>
<g xmlns="http://www.w3.org/2000/svg">
	<g>
		<path d="M208.884,269.498h-0.287c-5.523,0-10,4.477-10,10s4.477,10,10,10h0.287c5.523,0,10-4.477,10-10    S214.406,269.498,208.884,269.498z" fill="#4f45e4" data-original="#000000" style="" class=""/>
	</g>
</g>
<g xmlns="http://www.w3.org/2000/svg">
	<g>
		<path d="M128.884,308.998h-0.287c-5.523,0-10,4.477-10,10s4.477,10,10,10h0.287c5.523,0,10-4.477,10-10    S134.406,308.998,128.884,308.998z" fill="#4f45e4" data-original="#000000" style="" class=""/>
	</g>
</g>
<g xmlns="http://www.w3.org/2000/svg">
	<g>
		<path d="M213.634,325.5h-0.287c-5.523,0-10,4.477-10,10s4.477,10,10,10h0.287c5.523,0,10-4.477,10-10S219.156,325.5,213.634,325.5    z" fill="#4f45e4" data-original="#000000" style="" class=""/>
	</g>
</g>
<g xmlns="http://www.w3.org/2000/svg">
	<g>
		<path d="M166.921,345h-0.287c-5.523,0-10,4.477-10,10s4.477,10,10,10h0.287c5.523,0,10-4.477,10-10S172.444,345,166.921,345z" fill="#4f45e4" data-original="#000000" style="" class=""/>
	</g>
</g>
<g xmlns="http://www.w3.org/2000/svg">
	<g>
		<path d="M144.884,245.998h-0.287c-5.523,0-10,4.477-10,10s4.477,10,10,10h0.287c5.523,0,10-4.477,10-10    S150.406,245.998,144.884,245.998z" fill="#4f45e4" data-original="#000000" style="" class=""/>
	</g>
</g>
<g xmlns="http://www.w3.org/2000/svg">
	<g>
		<path d="M176.171,395.688h-0.287c-5.523,0-10,4.477-10,10s4.477,10,10,10h0.287c5.523,0,10-4.477,10-10    S181.694,395.688,176.171,395.688z" fill="#4f45e4" data-original="#000000" style="" class=""/>
	</g>
</g>
<g xmlns="http://www.w3.org/2000/svg">
	<g>
		<path d="M279.309,190.527c-4.636-3.004-10.827-1.679-13.83,2.957c-6.855,10.584-11.896,22.152-14.982,34.382    c-1.351,5.355,1.895,10.791,7.25,12.143c0.821,0.207,1.644,0.306,2.454,0.306c4.472,0,8.544-3.022,9.689-7.556    c2.549-10.104,6.713-19.659,12.377-28.402C285.267,199.721,283.944,193.529,279.309,190.527z" fill="#4f45e4" data-original="#000000" style="" class=""/>
	</g>
</g>
<g xmlns="http://www.w3.org/2000/svg">
	<g>
		<path d="M362.001,106.001c-13.334,0-26.461,1.768-39.092,5.169C305.566,46.127,246.315,0,178.001,0c-82.71,0-150,67.29-150,150    c0,19.82,3.89,39.198,11.288,57.152c0.12,0.33,0.256,0.655,0.411,0.972c5.108,12.151,11.828,23.636,20.043,34.151    C23.481,269.68,0,313.148,0,362.002c0,20.071,3.973,39.23,11.157,56.744c0.168,0.531,0.377,1.048,0.633,1.546    c22.792,53.84,76.162,91.71,138.21,91.71c72.698,0,133.475-51.988,147.125-120.736c20.15,9.669,42.308,14.735,64.876,14.735    c78.17,0,142.555-60.108,149.389-136.531c0.024-0.214,0.045-0.427,0.056-0.642c0.36-4.23,0.555-8.506,0.555-12.827    C512.002,173.291,444.712,106.001,362.001,106.001z M56.567,196.454c-5.617-14.688-8.563-30.402-8.563-46.454    C48.002,78.318,106.319,20,178.001,20c59.676,0,111.372,40.605,125.938,97.671c-15.664,6.577-30.228,15.829-43.029,27.516    c-23.835,21.758-39.863,50.318-46.043,81.579c-15.752-7.586-33.028-12.489-51.229-14.138c-2.347-4.593-4.285-9.717-5.78-15.297    c-12.255-45.733-35.896-60.232-53.944-58.573c-16.298,1.509-28.278,15.832-29.81,35.641c-0.869,11.242-4.339,19.508-9.28,22.112    C62.16,197.914,59.165,197.461,56.567,196.454z M141.656,212.237c-23.555,1.298-45.675,8.058-65.121,19.027    c-3.674-4.581-7.015-9.383-10.012-14.37c2.629-0.516,5.184-1.403,7.624-2.689c11.387-6.001,18.453-19.59,19.896-38.264    c0.766-9.902,5.364-16.68,11.713-17.268c9.895-0.927,24.362,12.413,32.782,43.835C139.44,205.873,140.483,209.117,141.656,212.237    z M150.001,492.002c-47.238,0-88.668-25.329-111.433-63.115c2.613-0.517,5.153-1.403,7.579-2.681    c11.386-6,18.452-19.589,19.896-38.263c0.766-9.902,5.364-16.681,11.714-17.269c9.872-0.915,24.361,12.413,32.781,43.836    c8.909,33.25,31.549,54.25,59.084,54.804c0.379,0.007,0.758,0.011,1.136,0.011c30.019,0,56.817-23.978,68.486-61.429    c0.04-0.128,0.077-0.257,0.112-0.387c3.376-12.596,10.009-28.21,22.445-31.061c6.482-1.485,12.994,0.855,16.973,3.372    C270.059,443.102,215.637,492.002,150.001,492.002z M257.332,356.955c-12.191,2.795-28.537,12.903-37.241,45.176    c-9.125,29.102-28.712,47.601-50.068,47.188c-18.543-0.374-33.559-15.321-40.168-39.984c-12.253-45.733-35.9-60.237-53.943-58.574    c-16.299,1.508-28.279,15.831-29.811,35.641c-0.869,11.241-4.338,19.507-9.28,22.112c-2.653,1.398-5.637,0.954-8.229-0.046    c-5.544-14.437-8.592-30.101-8.592-46.465c0-71.683,58.317-130.001,130-130.001c70.478,0,128.035,56.377,129.948,126.402    C273.007,356.041,265.085,355.179,257.332,356.955z M362.001,386.001c-21.835,0-43.215-5.475-62.225-15.852    c0.145-2.698,0.224-5.414,0.224-8.147c0-28.683-8.098-55.507-22.119-78.318c0.057-0.58,0.118-1.159,0.163-1.742    c0.766-9.902,5.363-16.68,11.713-17.268c9.869-0.924,24.361,12.411,32.782,43.835c8.909,33.25,31.549,54.249,59.084,54.804    c0.38,0.007,0.758,0.011,1.136,0.011c30.019-0.001,56.817-23.978,68.486-61.429c9.867-31.665,19.942-36.959,23.816-37.765    c5.688-1.184,11.951,3.679,15.979,7.66C483.223,336.053,428.338,386.001,362.001,386.001z M470.986,244.551    c-16.421,3.418-29.124,20.23-38.835,51.395c-9.101,29.207-28.749,47.81-50.126,47.372c-18.543-0.374-33.56-15.321-40.168-39.985    c-12.254-45.732-35.887-60.248-53.944-58.573c-11.012,1.02-20.048,7.895-25.227,18.354c-8.613-9.804-18.479-18.479-29.35-25.771    c6.94-48.692,40.134-87.835,84.425-103.702c0.776-0.175,1.511-0.434,2.197-0.771c13.197-4.461,27.342-6.87,42.043-6.87    c68.902,0.001,125.445,53.885,129.728,121.725C484.826,244.267,477.783,243.136,470.986,244.551z" fill="#4f45e4" data-original="#000000" style="" class=""/>
	</g>
</g>
<g xmlns="http://www.w3.org/2000/svg">
	<g>
		<path d="M300.712,170.086c-3.644-4.149-9.984-4.542-14.133-0.897c-0.001,0.001-0.025,0.022-0.026,0.023    c-4.17,3.621-4.604,9.925-0.983,14.096c1.975,2.275,4.756,3.439,7.553,3.439c2.329,0,4.669-0.807,6.564-2.451l0.132-0.115    C303.968,180.536,304.357,174.235,300.712,170.086z" fill="#4f45e4" data-original="#000000" style="" class=""/>
	</g>
</g>
<g xmlns="http://www.w3.org/2000/svg">
	<g>
		<path d="M420.885,163.497h-0.287c-5.522,0-10,4.477-10,10s4.478,10,10,10h0.287c5.522,0,10-4.477,10-10    C430.885,167.974,426.408,163.497,420.885,163.497z" fill="#4f45e4" data-original="#000000" style="" class=""/>
	</g>
</g>
<g xmlns="http://www.w3.org/2000/svg">
	<g>
		<path d="M340.885,202.997h-0.287c-5.522,0-10,4.477-10,10s4.478,10,10,10h0.287c5.522,0,10-4.477,10-10    C350.885,207.474,346.408,202.997,340.885,202.997z" fill="#4f45e4" data-original="#000000" style="" class=""/>
	</g>
</g>
<g xmlns="http://www.w3.org/2000/svg">
	<g>
		<path d="M425.634,219.499h-0.287c-5.522,0-10,4.477-10,10c0,5.523,4.478,10,10,10h0.287c5.522,0,10-4.477,10-10    C435.634,223.976,431.156,219.499,425.634,219.499z" fill="#4f45e4" data-original="#000000" style="" class=""/>
	</g>
</g>
<g xmlns="http://www.w3.org/2000/svg">
	<g>
		<path d="M378.921,238.999h-0.287c-5.523,0-10,4.477-10,10c0,5.523,4.478,10,10,10h0.287c5.523,0,10-4.477,10-10    C388.921,243.476,384.444,238.999,378.921,238.999z" fill="#4f45e4" data-original="#000000" style="" class=""/>
	</g>
</g>
<g xmlns="http://www.w3.org/2000/svg">
	<g>
		<path d="M356.885,139.997h-0.287c-5.522,0-10,4.477-10,10s4.478,10,10,10h0.287c5.522,0,10-4.477,10-10    C366.885,144.474,362.408,139.997,356.885,139.997z" fill="#4f45e4" data-original="#000000" style="" class=""/>
	</g>
</g>
<g xmlns="http://www.w3.org/2000/svg">
	<g>
		<path d="M388.171,289.687h-0.287c-5.523,0-10,4.477-10,10s4.477,10,10,10h0.287c5.523,0,10-4.477,10-10    S393.694,289.687,388.171,289.687z" fill="#4f45e4" data-original="#000000" style="" class=""/>
	</g>
</g>
<g xmlns="http://www.w3.org/2000/svg">
	<g>
		<path d="M95.307,84.524c-4.636-3.001-10.827-1.678-13.829,2.958c-6.856,10.587-11.897,22.154-14.982,34.381    c-1.351,5.356,1.894,10.793,7.249,12.144c0.821,0.207,1.644,0.306,2.454,0.306c4.472,0,8.545-3.022,9.689-7.556    c2.549-10.101,6.713-19.657,12.377-28.404C101.267,93.717,99.944,87.526,95.307,84.524z" fill="#4f45e4" data-original="#000000" style="" class=""/>
	</g>
</g>
<g xmlns="http://www.w3.org/2000/svg">
	<g>
		<path d="M116.783,64.124c-3.612-4.177-9.927-4.636-14.105-1.022c-0.011,0.009-0.085,0.073-0.096,0.083l6.528,7.576l-6.557-7.55    c-4.17,3.621-4.615,9.937-0.993,14.107c1.977,2.277,4.758,3.443,7.554,3.443c2.324,0,4.66-0.806,6.553-2.45l-6.51-7.591    l6.604,7.509C119.937,74.616,120.395,68.301,116.783,64.124z" fill="#4f45e4" data-original="#000000" style="" class=""/>
	</g>
</g>
<g xmlns="http://www.w3.org/2000/svg">
	<g>
		<path d="M236.885,57.496h-0.287c-5.523,0-10,4.477-10,10c0,5.523,4.477,10,10,10h0.287c5.523,0,10-4.477,10-10    C246.885,61.973,242.408,57.496,236.885,57.496z" fill="#4f45e4" data-original="#000000" style="" class=""/>
	</g>
</g>
<g xmlns="http://www.w3.org/2000/svg">
	<g>
		<path d="M156.885,96.996h-0.287c-5.523,0-10,4.477-10,10c0,5.523,4.477,10,10,10h0.287c5.523,0,10-4.477,10-10    C166.885,101.473,162.408,96.996,156.885,96.996z" fill="#4f45e4" data-original="#000000" style="" class=""/>
	</g>
</g>
<g xmlns="http://www.w3.org/2000/svg">
	<g>
		<path d="M241.634,113.498h-0.287c-5.523,0-10,4.477-10,10s4.477,10,10,10h0.287c5.523,0,10-4.477,10-10    S247.158,113.498,241.634,113.498z" fill="#4f45e4" data-original="#000000" style="" class=""/>
	</g>
</g>
<g xmlns="http://www.w3.org/2000/svg">
	<g>
		<path d="M194.921,132.998h-0.287c-5.523,0-10,4.477-10,10s4.477,10,10,10h0.287c5.523,0,10-4.477,10-10    S200.444,132.998,194.921,132.998z" fill="#4f45e4" data-original="#000000" style="" class=""/>
	</g>
</g>
<g xmlns="http://www.w3.org/2000/svg">
	<g>
		<path d="M172.885,33.996h-0.287c-5.523,0-10,4.477-10,10c0,5.523,4.477,10,10,10h0.287c5.523,0,10-4.477,10-10    C182.885,38.473,178.408,33.996,172.885,33.996z" fill="#4f45e4" data-original="#000000" style="" class=""/>
	</g>
</g>
<g xmlns="http://www.w3.org/2000/svg">
	<g>
		<path d="M204.171,183.686h-0.287c-5.523,0-10,4.477-10,10c0,5.523,4.477,10,10,10h0.287c5.523,0,10-4.477,10-10    C214.171,188.163,209.694,183.686,204.171,183.686z" fill="#4f45e4" data-original="#000000" style="" class=""/>
	</g>
</g>
<g xmlns="http://www.w3.org/2000/svg">
</g>
<g xmlns="http://www.w3.org/2000/svg">
</g>
<g xmlns="http://www.w3.org/2000/svg">
</g>
<g xmlns="http://www.w3.org/2000/svg">
</g>
<g xmlns="http://www.w3.org/2000/svg">
</g>
<g xmlns="http://www.w3.org/2000/svg">
</g>
<g xmlns="http://www.w3.org/2000/svg">
</g>
<g xmlns="http://www.w3.org/2000/svg">
</g>
<g xmlns="http://www.w3.org/2000/svg">
</g>
<g xmlns="http://www.w3.org/2000/svg">
</g>
<g xmlns="http://www.w3.org/2000/svg">
</g>
<g xmlns="http://www.w3.org/2000/svg">
</g>
<g xmlns="http://www.w3.org/2000/svg">
</g>
<g xmlns="http://www.w3.org/2000/svg">
</g>
<g xmlns="http://www.w3.org/2000/svg">
</g>
</g></svg>
