<?xml version="1.0"?>
<svg xmlns="http://www.w3.org/2000/svg" xmlns:xlink="http://www.w3.org/1999/xlink" xmlns:svgjs="http://svgjs.com/svgjs" version="1.1" width="512" height="512" x="0" y="0" viewBox="0 0 512.002 512.002" style="enable-background:new 0 0 512 512" xml:space="preserve" class=""><g>
<g xmlns="http://www.w3.org/2000/svg">
	<g>
		<path style="" d="M120.196,411.922c-17.817-66.498-61.312-61.102-64.125-24.75    c-2.219,28.692-18.523,38.29-35.395,28.55c21.068,50.66,71.036,86.28,129.323,86.28c72.701,0,132.46-55.416,139.339-126.312    c0.001-0.004,0.001-0.009,0.002-0.014c-8.949-10.103-45.217-24.599-59.645,29.245C208.197,473.922,138.014,478.42,120.196,411.922    z" fill="#fdba47" data-original="#f4d99d" class=""/>
		<path style="" d="M74.392,244.156c21.806-14.021,47.757-22.154,75.607-22.154c2.533,0,5.051,0.067,7.552,0.2    c-3.849-6.247-7.044-13.663-9.354-22.282c-17.818-66.498-61.314-61.102-64.125-24.75c-2.219,28.692-18.523,38.291-35.395,28.551    C54.904,218.689,63.653,232.344,74.392,244.156z" fill="#fdba47" data-original="#f4d99d" class=""/>
		<path style="" d="M267.551,285.933C281.753,307.834,290,333.955,290,362.002c0,4.614-0.223,9.176-0.659,13.675    c0.01,0.011,0.019,0.021,0.028,0.032c21.175,12.876,46.038,20.293,72.632,20.293c73.172,0,133.231-56.134,139.467-127.686    c-8.731-10.107-38.27-38.394-59.77,30.606s-91.682,73.499-109.5,7c-17.818-66.498-61.314-61.102-64.125-24.75    C267.946,282.822,267.769,284.408,267.551,285.933z" fill="#fdba47" data-original="#f4d99d" class=""/>
	</g>
	<g>
		<path style="" d="M290.001,362.002c0-28.047-8.247-54.168-22.449-76.069c-11.476-17.697-26.84-32.64-44.882-43.616    c-19.167-11.663-41.356-18.852-65.117-20.114c-2.501-0.133-5.019-0.2-7.552-0.2c-27.851,0-53.802,8.133-75.608,22.152    c-38.734,24.902-64.392,68.379-64.392,117.848c0,19.032,3.798,37.178,10.677,53.72c16.871,9.74,33.176,0.142,35.395-28.55    c2.813-36.352,46.308-41.748,64.125,24.75c17.818,66.499,88,62,109.5-7c14.428-53.844,50.694-39.348,59.645-29.245    C289.778,371.178,290.001,366.616,290.001,362.002z" fill="#a73923" data-original="#755b62" class=""/>
		<path style="" d="M268.074,281.171c2.811-36.352,46.307-41.748,64.125,24.75c17.818,66.499,88,62,109.5-7    s51.038-40.714,59.77-30.606c0.354-4.058,0.533-8.164,0.533-12.314c0-77.319-62.68-140-140-140    c-16.278,0-31.908,2.779-46.441,7.888c-50.368,17.707-87.553,63.406-92.891,118.428c18.042,10.977,33.406,25.919,44.882,43.616    C267.769,284.408,267.946,282.822,268.074,281.171z" fill="#a73923" data-original="#755b62" class=""/>
		<path style="" d="M222.669,242.316c5.338-55.022,42.522-100.721,92.891-118.428    C303.327,59.049,246.396,10,178.001,10c-77.319,0-140,62.681-140,140c0,19.033,3.799,37.179,10.678,53.721    c16.871,9.74,33.176,0.142,35.395-28.551c2.812-36.352,46.307-41.748,64.125,24.75c2.309,8.619,5.505,16.035,9.354,22.282    C181.313,223.465,203.503,230.653,222.669,242.316z" fill="#a73923" data-original="#755b62" class=""/>
	</g>
</g>
<path xmlns="http://www.w3.org/2000/svg" d="M45.743,346.009c0.821,0.207,1.644,0.306,2.454,0.306c4.472,0,8.545-3.022,9.689-7.556  c2.549-10.101,6.713-19.657,12.377-28.402c3.002-4.636,1.679-10.828-2.957-13.83c-4.635-3.002-10.827-1.678-13.83,2.957  c-6.857,10.587-11.898,22.154-14.984,34.382C37.144,339.221,40.389,344.657,45.743,346.009z" fill="#3b1011" data-original="#000000" style="" class=""/>
<path xmlns="http://www.w3.org/2000/svg" d="M81.111,292.762c2.354,0,4.716-0.826,6.616-2.504c4.161-3.568,4.677-9.831,1.139-14.032  c-3.557-4.225-9.867-4.764-14.09-1.207c-0.11,0.092-0.217,0.185-0.324,0.281c-4.122,3.676-4.483,9.997-0.807,14.119  C75.621,291.633,78.36,292.762,81.111,292.762z" fill="#3b1011" data-original="#000000" style="" class=""/>
<path xmlns="http://www.w3.org/2000/svg" d="M208.596,289.498h0.287c5.523,0,10-4.477,10-10s-4.477-10-10-10h-0.287c-5.523,0-10,4.477-10,10  S203.074,289.498,208.596,289.498z" fill="#3b1011" data-original="#000000" style="" class=""/>
<path xmlns="http://www.w3.org/2000/svg" d="M128.596,328.998h0.287c5.523,0,10-4.477,10-10s-4.477-10-10-10h-0.287c-5.523,0-10,4.477-10,10  S123.073,328.998,128.596,328.998z" fill="#3b1011" data-original="#000000" style="" class=""/>
<path xmlns="http://www.w3.org/2000/svg" d="M213.346,325.5c-5.523,0-10,4.477-10,10s4.477,10,10,10h0.287c5.523,0,10-4.477,10-10s-4.477-10-10-10H213.346z" fill="#3b1011" data-original="#000000" style="" class=""/>
<path xmlns="http://www.w3.org/2000/svg" d="M166.633,365h0.287c5.523,0,10-4.477,10-10s-4.477-10-10-10h-0.287c-5.523,0-10,4.477-10,10S161.11,365,166.633,365z" fill="#3b1011" data-original="#000000" style="" class=""/>
<path xmlns="http://www.w3.org/2000/svg" d="M144.596,265.998h0.287c5.523,0,10-4.477,10-10c0-5.523-4.477-10-10-10h-0.287c-5.523,0-10,4.477-10,10  C134.596,261.521,139.074,265.998,144.596,265.998z" fill="#3b1011" data-original="#000000" style="" class=""/>
<path xmlns="http://www.w3.org/2000/svg" d="M175.883,395.688c-5.523,0-10,4.477-10,10s4.477,10,10,10h0.287c5.523,0,10-4.477,10-10s-4.477-10-10-10H175.883z" fill="#3b1011" data-original="#000000" style="" class=""/>
<path xmlns="http://www.w3.org/2000/svg" d="M279.309,190.527c-4.636-3.004-10.827-1.679-13.83,2.957c-6.855,10.584-11.896,22.152-14.982,34.382  c-1.351,5.355,1.895,10.791,7.25,12.143c0.821,0.207,1.644,0.306,2.454,0.306c4.472,0,8.544-3.022,9.689-7.556  c2.549-10.104,6.713-19.659,12.377-28.402C285.268,199.721,283.945,193.529,279.309,190.527z" fill="#3b1011" data-original="#000000" style="" class=""/>
<path xmlns="http://www.w3.org/2000/svg" d="M511.447,268.828c0.36-4.23,0.555-8.506,0.555-12.827c0-82.71-67.29-150-150-150c-13.334,0-26.461,1.768-39.092,5.169  C305.566,46.127,246.315,0,178.001,0c-82.71,0-150,67.29-150,150c0,19.82,3.89,39.198,11.288,57.152  c0.12,0.33,0.256,0.655,0.411,0.972c5.108,12.151,11.828,23.636,20.043,34.151C23.481,269.68,0.001,313.148,0.001,362.002  c0,20.071,3.973,39.23,11.157,56.744c0.168,0.531,0.377,1.048,0.633,1.546c22.792,53.84,76.162,91.71,138.21,91.71  c72.698,0,133.475-51.988,147.125-120.736c20.15,9.669,42.308,14.735,64.876,14.735c78.17,0,142.555-60.108,149.389-136.531  C511.415,269.256,511.436,269.043,511.447,268.828z M491.73,247.725c-6.904-3.458-13.947-4.589-20.743-3.174  c-16.421,3.418-29.124,20.23-38.835,51.395c-9.101,29.207-28.749,47.81-50.126,47.372c-18.543-0.374-33.56-15.321-40.168-39.985  c-12.254-45.732-35.887-60.248-53.944-58.573c-11.012,1.02-20.048,7.895-25.227,18.354c-8.613-9.804-18.479-18.479-29.35-25.771  c6.94-48.692,40.134-87.835,84.425-103.702c0.776-0.175,1.511-0.434,2.197-0.771c13.197-4.461,27.342-6.87,42.043-6.87  C430.904,126.001,487.447,179.885,491.73,247.725z M178.001,20c59.676,0,111.372,40.605,125.938,97.671  c-15.664,6.577-30.228,15.829-43.029,27.516c-23.835,21.758-39.863,50.318-46.043,81.579c-15.752-7.586-33.028-12.489-51.229-14.138  c-2.347-4.593-4.285-9.717-5.78-15.297c-12.255-45.733-35.896-60.232-53.944-58.573c-16.298,1.509-28.278,15.832-29.81,35.641  c-0.869,11.242-4.339,19.508-9.28,22.112c-2.664,1.403-5.66,0.95-8.258-0.057c-5.617-14.688-8.563-30.402-8.563-46.454  C48.001,78.318,106.318,20,178.001,20z M66.523,216.894c2.629-0.516,5.184-1.403,7.624-2.689  c11.387-6.001,18.453-19.59,19.896-38.264c0.766-9.902,5.364-16.68,11.713-17.268c9.895-0.927,24.362,12.413,32.782,43.835  c0.902,3.365,1.945,6.609,3.118,9.729c-23.555,1.298-45.675,8.058-65.121,19.027C72.861,226.683,69.521,221.881,66.523,216.894z   M150.001,232.002c70.478,0,128.035,56.377,129.948,126.402c-6.941-2.363-14.863-3.225-22.616-1.449  c-12.191,2.795-28.537,12.903-37.241,45.176c-9.125,29.102-28.712,47.601-50.068,47.188c-18.543-0.374-33.559-15.321-40.168-39.984  c-12.253-45.733-35.9-60.237-53.943-58.574c-16.299,1.508-28.279,15.831-29.811,35.641c-0.869,11.241-4.338,19.507-9.28,22.112  c-2.653,1.398-5.637,0.954-8.229-0.046c-5.544-14.437-8.592-30.101-8.592-46.465C20,290.32,78.317,232.002,150.001,232.002z   M150.001,492.002c-47.238,0-88.668-25.329-111.433-63.115c2.613-0.517,5.153-1.403,7.579-2.681  c11.386-6,18.452-19.589,19.896-38.263c0.766-9.902,5.364-16.681,11.714-17.269c9.872-0.915,24.361,12.413,32.781,43.836  c8.909,33.25,31.549,54.25,59.084,54.804c0.379,0.007,0.758,0.011,1.136,0.011c30.019,0,56.817-23.978,68.486-61.429  c0.04-0.128,0.077-0.257,0.112-0.387c3.376-12.596,10.009-28.21,22.445-31.061c6.482-1.485,12.994,0.855,16.973,3.372  C270.06,443.102,215.637,492.002,150.001,492.002z M362.001,386.001c-21.835,0-43.215-5.475-62.225-15.852  c0.145-2.698,0.224-5.414,0.224-8.147c0-28.683-8.098-55.507-22.119-78.318c0.057-0.58,0.118-1.159,0.163-1.742  c0.766-9.902,5.363-16.68,11.713-17.268c9.869-0.924,24.361,12.411,32.782,43.835c8.909,33.25,31.549,54.249,59.084,54.804  c0.38,0.007,0.758,0.011,1.136,0.011c30.019-0.001,56.817-23.978,68.486-61.429c9.867-31.665,19.942-36.959,23.816-37.765  c5.688-1.184,11.951,3.679,15.979,7.66C483.223,336.053,428.339,386.001,362.001,386.001z" fill="#3b1011" data-original="#000000" style="" class=""/>
<path xmlns="http://www.w3.org/2000/svg" d="M286.579,169.189c-0.001,0.001-0.025,0.022-0.026,0.023c-4.17,3.621-4.604,9.925-0.983,14.096  c1.975,2.275,4.756,3.439,7.553,3.439c2.329,0,4.669-0.807,6.564-2.451l0.132-0.115c4.149-3.645,4.538-9.946,0.893-14.095  C297.069,165.937,290.729,165.544,286.579,169.189z" fill="#3b1011" data-original="#000000" style="" class=""/>
<path xmlns="http://www.w3.org/2000/svg" d="M420.599,183.497h0.287c5.522,0,10-4.477,10-10s-4.478-10-10-10h-0.287c-5.522,0-10,4.477-10,10  C410.599,179.02,415.077,183.497,420.599,183.497z" fill="#3b1011" data-original="#000000" style="" class=""/>
<path xmlns="http://www.w3.org/2000/svg" d="M340.599,222.997h0.287c5.522,0,10-4.477,10-10s-4.478-10-10-10h-0.287c-5.522,0-10,4.477-10,10  C330.599,218.52,335.077,222.997,340.599,222.997z" fill="#3b1011" data-original="#000000" style="" class=""/>
<path xmlns="http://www.w3.org/2000/svg" d="M425.348,219.499c-5.522,0-10,4.477-10,10s4.478,10,10,10h0.287c5.522,0,10-4.477,10-10s-4.478-10-10-10H425.348z" fill="#3b1011" data-original="#000000" style="" class=""/>
<path xmlns="http://www.w3.org/2000/svg" d="M378.635,258.999h0.287c5.523,0,10-4.477,10-10s-4.477-10-10-10h-0.287c-5.523,0-10,4.477-10,10  C368.635,254.522,373.113,258.999,378.635,258.999z" fill="#3b1011" data-original="#000000" style="" class=""/>
<path xmlns="http://www.w3.org/2000/svg" d="M356.599,159.997h0.287c5.522,0,10-4.477,10-10s-4.478-10-10-10h-0.287c-5.522,0-10,4.477-10,10  C346.599,155.52,351.077,159.997,356.599,159.997z" fill="#3b1011" data-original="#000000" style="" class=""/>
<path xmlns="http://www.w3.org/2000/svg" d="M387.885,289.687c-5.523,0-10,4.477-10,10s4.477,10,10,10h0.287c5.523,0,10-4.477,10-10s-4.477-10-10-10H387.885z" fill="#3b1011" data-original="#000000" style="" class=""/>
<path xmlns="http://www.w3.org/2000/svg" d="M73.745,134.007c0.821,0.207,1.644,0.306,2.454,0.306c4.472,0,8.545-3.022,9.689-7.556  c2.549-10.101,6.713-19.657,12.377-28.404c3.002-4.636,1.678-10.827-2.958-13.829c-4.636-3.001-10.827-1.678-13.829,2.958  c-6.856,10.587-11.897,22.154-14.982,34.381C65.146,127.219,68.39,132.656,73.745,134.007z" fill="#3b1011" data-original="#000000" style="" class=""/>
<path xmlns="http://www.w3.org/2000/svg" d="M109.113,80.761c2.324,0,4.66-0.806,6.553-2.45l-6.51-7.591l6.604,7.509c4.177-3.613,4.635-9.928,1.022-14.105  c-3.612-4.177-9.927-4.636-14.105-1.022c-0.011,0.009-0.085,0.073-0.096,0.083l6.528,7.576l-6.557-7.55  c-4.17,3.621-4.615,9.937-0.993,14.107C103.536,79.595,106.317,80.761,109.113,80.761z" fill="#3b1011" data-original="#000000" style="" class=""/>
<path xmlns="http://www.w3.org/2000/svg" d="M236.598,77.496h0.287c5.523,0,10-4.477,10-10s-4.477-10-10-10h-0.287c-5.523,0-10,4.477-10,10  S231.076,77.496,236.598,77.496z" fill="#3b1011" data-original="#000000" style="" class=""/>
<path xmlns="http://www.w3.org/2000/svg" d="M156.598,116.996h0.287c5.523,0,10-4.477,10-10s-4.477-10-10-10h-0.287c-5.523,0-10,4.477-10,10  C146.598,112.519,151.076,116.996,156.598,116.996z" fill="#3b1011" data-original="#000000" style="" class=""/>
<path xmlns="http://www.w3.org/2000/svg" d="M241.348,113.498c-5.523,0-10,4.477-10,10c0,5.523,4.477,10,10,10h0.287c5.523,0,10-4.477,10-10c0-5.523-4.477-10-10-10  H241.348z" fill="#3b1011" data-original="#000000" style="" class=""/>
<path xmlns="http://www.w3.org/2000/svg" d="M194.634,152.998h0.287c5.523,0,10-4.477,10-10s-4.477-10-10-10h-0.287c-5.523,0-10,4.477-10,10  S189.111,152.998,194.634,152.998z" fill="#3b1011" data-original="#000000" style="" class=""/>
<path xmlns="http://www.w3.org/2000/svg" d="M172.598,53.996h0.287c5.523,0,10-4.477,10-10s-4.477-10-10-10h-0.287c-5.523,0-10,4.477-10,10  S167.076,53.996,172.598,53.996z" fill="#3b1011" data-original="#000000" style="" class=""/>
<path xmlns="http://www.w3.org/2000/svg" d="M203.884,183.686c-5.523,0-10,4.477-10,10s4.477,10,10,10h0.287c5.523,0,10-4.477,10-10s-4.477-10-10-10H203.884z" fill="#3b1011" data-original="#000000" style="" class=""/>
<g xmlns="http://www.w3.org/2000/svg">
</g>
<g xmlns="http://www.w3.org/2000/svg">
</g>
<g xmlns="http://www.w3.org/2000/svg">
</g>
<g xmlns="http://www.w3.org/2000/svg">
</g>
<g xmlns="http://www.w3.org/2000/svg">
</g>
<g xmlns="http://www.w3.org/2000/svg">
</g>
<g xmlns="http://www.w3.org/2000/svg">
</g>
<g xmlns="http://www.w3.org/2000/svg">
</g>
<g xmlns="http://www.w3.org/2000/svg">
</g>
<g xmlns="http://www.w3.org/2000/svg">
</g>
<g xmlns="http://www.w3.org/2000/svg">
</g>
<g xmlns="http://www.w3.org/2000/svg">
</g>
<g xmlns="http://www.w3.org/2000/svg">
</g>
<g xmlns="http://www.w3.org/2000/svg">
</g>
<g xmlns="http://www.w3.org/2000/svg">
</g>
</g></svg>
